<?xml version="1.0" standalone="no"?>
<!DOCTYPE svg PUBLIC "-//W3C//DTD SVG 20010904//EN"
 "http://www.w3.org/TR/2001/REC-SVG-20010904/DTD/svg10.dtd">
<svg version="1.0" xmlns="http://www.w3.org/2000/svg"
 width="640.000000pt" height="640.000000pt" viewBox="0 0 640.000000 640.000000"
 preserveAspectRatio="xMidYMid meet">

<g transform="translate(0.000000,640.000000) scale(0.100000,-0.100000)"
fill="#000000" stroke="none">
<path d="M4390 4022 c1 -592 3 -693 15 -706 8 -8 11 -16 6 -18 -16 -6 33 -109
74 -155 53 -60 103 -83 185 -83 81 0 110 8 110 29 0 13 2 13 9 3 7 -12 12 -12
30 -1 11 8 21 20 21 27 0 7 5 10 11 7 14 -9 55 30 85 81 25 43 47 132 36 149
-4 5 -7 15 -8 20 0 6 -2 16 -2 22 -3 20 -59 44 -87 37 -49 -12 -76 -72 -50
-114 9 -14 32 -13 37 2 3 9 6 9 12 0 4 -7 2 -12 -3 -12 -6 0 -11 -6 -11 -14 0
-15 -49 -26 -119 -26 -31 0 -53 7 -76 24 -24 19 -35 22 -44 13 -8 -8 -11 -8
-11 0 0 6 6 13 13 16 9 3 9 7 0 18 -24 29 -33 150 -33 445 0 256 -2 303 -15
314 -8 7 -15 17 -15 22 0 6 5 6 14 -1 11 -9 15 -2 20 40 5 40 15 60 39 84 32
32 34 32 86 24 29 -4 61 -15 71 -24 9 -8 19 -15 22 -15 7 0 32 112 29 129 -1
7 2 10 8 6 6 -3 11 -1 11 5 0 6 15 35 34 65 19 29 32 56 29 59 -4 3 -2 6 4 6
5 0 24 18 42 40 33 41 30 54 -5 22 -20 -18 -161 -85 -204 -97 -14 -4 -35 -13
-47 -21 -13 -8 -23 -11 -23 -7 0 5 -29 9 -65 10 -116 3 -157 41 -163 153 -3
41 -9 70 -15 70 -6 0 -21 10 -34 22 l-23 21 0 -691z m42 466 c-9 -9 -15 -9
-24 0 -9 9 -7 12 12 12 19 0 21 -3 12 -12z m68 -99 c0 -5 -4 -9 -10 -9 -5 0
-10 7 -10 16 0 8 5 12 10 9 6 -3 10 -10 10 -16z m240 6 c-7 -9 -15 -13 -19
-10 -3 3 1 10 9 15 21 14 24 12 10 -5z m-190 -45 c0 -5 -4 -10 -10 -10 -5 0
-10 5 -10 10 0 6 5 10 10 10 6 0 10 -4 10 -10z m255 0 c-3 -5 -12 -10 -18 -10
-7 0 -6 4 3 10 19 12 23 12 15 0z m-285 -10 c0 -5 -2 -10 -4 -10 -3 0 -8 5
-11 10 -3 6 -1 10 4 10 6 0 11 -4 11 -10z m225 -30 c3 -5 1 -10 -4 -10 -6 0
-11 5 -11 10 0 6 2 10 4 10 3 0 8 -4 11 -10z m-225 -14 c-7 -7 -14 -6 -21 1
-9 9 -7 12 9 10 14 -1 18 -5 12 -11z m70 -6 c0 -5 -8 -10 -17 -10 -15 0 -16 2
-3 10 19 12 20 12 20 0z m-60 -294 c0 -3 -4 -8 -10 -11 -5 -3 -10 -1 -10 4 0
6 5 11 10 11 6 0 10 -2 10 -4z m-90 -287 c0 -6 -4 -7 -10 -4 -5 3 -10 11 -10
16 0 6 5 7 10 4 6 -3 10 -11 10 -16z m-5 -149 c-3 -5 -11 -10 -16 -10 -6 0 -7
5 -4 10 3 6 11 10 16 10 6 0 7 -4 4 -10z m15 -44 c0 -3 -4 -8 -10 -11 -5 -3
-10 -1 -10 4 0 6 5 11 10 11 6 0 10 -2 10 -4z m-10 -127 c0 -6 -4 -7 -10 -4
-5 3 -10 11 -10 16 0 6 5 7 10 4 6 -3 10 -11 10 -16z m125 -18 c-8 -14 -25
-14 -25 0 0 5 5 7 10 4 6 -3 10 -1 10 6 0 7 3 10 6 6 3 -3 3 -10 -1 -16z m-41
-7 c9 -24 7 -28 -9 -14 -17 14 -20 30 -6 30 5 0 12 -7 15 -16z m336 12 c0 -3
-4 -8 -10 -11 -5 -3 -10 -1 -10 4 0 6 5 11 10 11 6 0 10 -2 10 -4z m-346 -58
c6 -4 7 -10 3 -14 -10 -10 -36 27 -36 51 0 17 2 17 12 -5 6 -14 16 -28 21 -32z
m-84 7 c11 -13 10 -14 -4 -9 -9 3 -16 10 -16 15 0 13 6 11 20 -6z m497 -7 c-3
-8 -6 -5 -6 6 -1 11 2 17 5 13 3 -3 4 -12 1 -19z m-304 -45 c-7 -2 -19 -2 -25
0 -7 3 -2 5 12 5 14 0 19 -2 13 -5z m-61 -25 c-7 -7 -12 -8 -12 -2 0 6 3 14 7
17 3 4 9 5 12 2 2 -3 -1 -11 -7 -17z m363 2 c3 -5 -1 -10 -10 -10 -9 0 -13 5
-10 10 3 6 8 10 10 10 2 0 7 -4 10 -10z m-60 -31 c4 -6 4 -13 0 -17 -3 -3 -9
-1 -13 5 -4 6 -16 13 -27 16 -16 4 -14 5 7 6 15 0 30 -4 33 -10z m-362 -30 c4
-16 3 -18 -9 -8 -16 13 -19 29 -5 29 5 0 11 -9 14 -21z m217 11 c0 -5 -5 -10
-11 -10 -5 0 -7 5 -4 10 3 6 8 10 11 10 2 0 4 -4 4 -10z m-170 -40 c0 -5 -4
-10 -10 -10 -5 0 -10 5 -10 10 0 6 5 10 10 10 6 0 10 -4 10 -10z m140 0 c0 -5
-2 -10 -4 -10 -3 0 -8 5 -11 10 -3 6 -1 10 4 10 6 0 11 -4 11 -10z m-38 -52
c-7 -7 -12 -8 -12 -2 0 6 3 14 7 17 3 4 9 5 12 2 2 -3 -1 -11 -7 -17z m88 10
c0 -4 -4 -8 -9 -8 -6 0 -12 4 -15 8 -3 5 1 9 9 9 8 0 15 -4 15 -9z m16 -35
c-10 -10 -19 5 -10 18 6 11 8 11 12 0 2 -7 1 -15 -2 -18z m-76 7 c0 -5 -4 -10
-10 -10 -5 0 -10 5 -10 10 0 6 5 10 10 10 6 0 10 -4 10 -10z"/>
<path d="M5904 4490 c-91 -19 -215 -106 -258 -181 l-20 -34 35 29 c18 16 33
33 31 38 -1 5 2 7 6 4 5 -3 29 4 53 16 37 19 67 23 181 28 139 5 163 12 156
45 -8 45 -100 72 -184 55z m176 -49 c0 -5 -7 -12 -16 -15 -14 -5 -15 -4 -4 9
14 17 20 19 20 6z m-100 -31 c0 -5 -4 -10 -9 -10 -6 0 -13 5 -16 10 -3 6 1 10
9 10 9 0 16 -4 16 -10z"/>
<path d="M5109 4453 c-55 -34 -74 -105 -44 -163 22 -42 53 -60 107 -60 66 0
108 37 115 101 5 47 -16 109 -38 109 -6 0 -17 7 -25 15 -20 20 -82 19 -115 -2z
m81 -103 c0 -5 -5 -10 -11 -10 -5 0 -7 5 -4 10 3 6 8 10 11 10 2 0 4 -4 4 -10z
m20 -28 c0 -5 -7 -9 -15 -9 -8 0 -15 4 -15 9 0 4 7 8 15 8 8 0 15 -4 15 -8z
m25 -12 c3 -5 1 -10 -4 -10 -6 0 -11 5 -11 10 0 6 2 10 4 10 3 0 8 -4 11 -10z
m-75 -40 c0 -5 -8 -10 -17 -10 -15 0 -16 2 -3 10 19 12 20 12 20 0z"/>
<path d="M747 4369 c-30 -18 -47 -65 -47 -133 0 -47 3 -65 13 -62 6 1 9 1 5
-1 -23 -13 26 -116 77 -163 l27 -25 -28 55 c-30 59 -33 94 -14 190 13 62 10
142 -5 146 -5 2 -18 -1 -28 -7z"/>
<path d="M881 4113 c-1 -189 -3 -223 -16 -223 -8 0 -13 -6 -11 -12 1 -7 1 -10
-1 -5 -9 15 -41 5 -138 -42 -146 -72 -270 -175 -348 -291 -31 -44 -18 -40 36
14 29 29 69 61 89 70 24 12 35 23 31 32 -3 8 -1 14 5 14 6 0 12 -5 14 -10 2
-7 14 -6 36 3 18 7 30 16 27 18 -2 3 10 5 28 6 18 1 80 10 140 21 l107 19 0
-68 c0 -44 4 -69 13 -72 10 -4 10 -6 0 -6 -19 -1 -16 -31 3 -31 8 0 12 -5 9
-10 -4 -6 -11 -8 -16 -5 -5 4 -9 -20 -9 -54 0 -36 4 -61 11 -61 5 0 7 5 3 12
-4 7 -3 8 4 4 17 -10 15 -26 -3 -26 -19 0 -19 -10 2 -40 16 -24 16 -24 0 -11
-16 13 -17 7 -16 -80 1 -58 5 -97 13 -101 8 -6 8 -8 -1 -8 -18 0 -17 -516 0
-524 9 -3 9 -5 -1 -5 -10 -1 -12 -71 -12 -333 0 -183 1 -341 0 -350 0 -14 -12
-18 -57 -21 l-58 -3 58 -2 c43 -2 57 -6 57 -17 0 -8 6 -15 13 -15 9 0 9 -2 0
-8 -7 -4 -13 -37 -14 -82 -3 -100 -25 -208 -46 -233 -18 -19 -17 -19 7 -12 95
27 177 95 216 178 25 55 31 82 14 72 -5 -3 -10 -1 -10 4 0 22 36 9 70 -25 19
-19 40 -32 48 -29 7 2 16 -5 21 -18 5 -12 21 -33 36 -47 15 -14 49 -53 77 -87
27 -35 56 -63 64 -63 7 0 11 -6 8 -14 -3 -7 14 -43 37 -79 l42 -67 21 34 c47
76 93 114 182 151 47 20 113 49 146 66 70 35 161 116 154 136 -3 7 1 13 9 13
14 0 17 4 19 33 1 6 6 17 12 22 22 20 58 197 58 290 0 87 -10 134 -51 233 -12
29 -15 31 -28 18 -8 -8 -15 -19 -15 -25 0 -5 -5 -13 -12 -17 -7 -5 -9 0 -6 14
4 13 0 23 -8 26 -8 3 -14 10 -14 16 0 6 7 4 16 -5 12 -12 19 -13 30 -4 21 17
17 36 -8 43 -18 5 -20 8 -9 15 12 8 12 13 -1 33 -32 49 -139 177 -169 202 -16
14 -28 28 -27 30 2 3 -5 14 -14 25 -9 11 -14 22 -11 25 4 3 1 6 -6 6 -7 0 -10
4 -7 9 4 5 2 21 -4 35 -10 26 -14 108 -8 156 2 14 -1 28 -7 32 -6 5 -3 8 6 8
16 0 34 28 25 38 -19 18 -195 -136 -181 -158 3 -6 2 -10 -2 -10 -13 0 -34 -65
-40 -117 -4 -43 -4 -45 19 -39 l23 6 -23 -12 c-20 -10 -23 -17 -18 -46 3 -19
13 -40 23 -48 11 -8 13 -13 6 -14 -16 0 -17 -30 -2 -30 5 0 7 -4 4 -10 -3 -5
-2 -10 4 -10 5 0 9 -8 8 -17 -1 -19 56 -138 79 -164 8 -8 14 -18 14 -22 0 -3
13 -25 28 -49 16 -24 35 -58 42 -76 11 -28 17 -32 37 -28 13 4 23 2 23 -4 0
-5 -10 -10 -21 -10 -19 0 -20 -4 -15 -32 10 -46 7 -121 -6 -198 -6 -36 -12
-77 -12 -92 -1 -14 -4 -24 -8 -22 -3 2 -16 -11 -27 -30 -18 -28 -81 -85 -178
-159 -9 -6 -34 7 -80 42 -38 28 -74 51 -80 51 -7 0 -13 4 -13 10 0 10 -216
120 -237 120 -8 0 -13 12 -13 28 0 15 -6 34 -12 41 -11 11 -10 13 0 7 10 -6
12 42 12 239 -1 136 0 249 3 251 2 2 22 -10 46 -27 38 -28 150 -72 160 -63 2
2 -2 11 -10 21 -12 15 -12 16 4 10 16 -6 18 -3 12 26 -4 17 -11 34 -16 35 -12
5 -11 32 1 32 6 0 10 9 10 20 0 11 -6 20 -12 20 -9 0 -10 3 -2 8 6 4 14 30 18
57 4 28 16 69 26 93 12 27 17 55 14 75 -5 29 -4 30 9 14 14 -16 15 -16 30 7 9
14 18 30 19 36 3 14 34 48 129 145 38 39 69 76 69 83 0 6 6 12 13 12 19 0 65
80 82 145 28 109 14 260 -35 393 -69 185 -246 299 -492 319 l-78 6 0 67 c0 66
-1 68 -30 80 -52 21 -124 126 -166 240 -11 31 -13 7 -13 -187z m359 -252 c0
-6 -4 -13 -10 -16 -5 -3 -10 1 -10 9 0 9 5 16 10 16 6 0 10 -4 10 -9z m-70
-51 c0 -5 -5 -10 -11 -10 -5 0 -7 5 -4 10 3 6 8 10 11 10 2 0 4 -4 4 -10z
m360 -65 c0 -9 -9 -15 -21 -15 -18 0 -19 2 -9 15 7 8 16 15 21 15 5 0 9 -7 9
-15z m-323 -50 c172 -77 240 -198 213 -376 -20 -125 -52 -182 -179 -309 -61
-61 -119 -122 -128 -137 -17 -26 -18 -17 -23 302 -3 182 -4 381 -2 443 l3 113
32 -6 c18 -4 55 -17 84 -30z m228 15 c3 -5 1 -10 -4 -10 -6 0 -11 5 -11 10 0
6 2 10 4 10 3 0 8 -4 11 -10z m-498 -131 c2 -17 -1 -18 -13 -8 -13 11 -10 20
11 29 1 0 1 -9 2 -21z m588 -289 c3 -5 1 -10 -4 -10 -6 0 -11 5 -11 10 0 6 2
10 4 10 3 0 8 -4 11 -10z m-30 -40 c3 -5 2 -10 -4 -10 -5 0 -13 5 -16 10 -3 6
-2 10 4 10 5 0 13 -4 16 -10z m56 -83 c-13 -13 -26 -3 -16 12 3 6 11 8 17 5 6
-4 6 -10 -1 -17z m-618 -2 c-3 -9 -8 -14 -10 -11 -3 3 -2 9 2 15 9 16 15 13 8
-4z m683 -42 c-10 -10 -19 5 -10 18 6 11 8 11 12 0 2 -7 1 -15 -2 -18z m-626
7 c0 -5 -4 -10 -10 -10 -5 0 -10 5 -10 10 0 6 5 10 10 10 6 0 10 -4 10 -10z
m520 -65 c0 -8 -2 -15 -4 -15 -2 0 -6 7 -10 15 -3 8 -1 15 4 15 6 0 10 -7 10
-15z m110 11 c0 -2 -7 -6 -15 -10 -8 -3 -15 -1 -15 4 0 6 7 10 15 10 8 0 15
-2 15 -4z m-260 -176 c0 -5 -4 -10 -10 -10 -5 0 -10 5 -10 10 0 6 5 10 10 10
6 0 10 -4 10 -10z m215 -40 c3 -5 1 -10 -4 -10 -6 0 -11 5 -11 10 0 6 2 10 4
10 3 0 8 -4 11 -10z m-665 -40 c0 -5 -2 -10 -4 -10 -3 0 -8 5 -11 10 -3 6 -1
10 4 10 6 0 11 -4 11 -10z m440 -5 c-7 -9 -15 -13 -17 -11 -7 7 7 26 19 26 6
0 6 -6 -2 -15z m245 -6 c-4 -5 -13 -9 -22 -9 -13 0 -13 3 -3 15 13 15 35 11
25 -6z m-455 -3 c0 -3 -4 -8 -10 -11 -5 -3 -10 -1 -10 4 0 6 5 11 10 11 6 0
10 -2 10 -4z m47 -2 c-3 -3 -12 -4 -19 -1 -8 3 -5 6 6 6 11 1 17 -2 13 -5z
m503 -8 c0 -3 -4 -8 -10 -11 -5 -3 -10 -1 -10 4 0 6 5 11 10 11 6 0 10 -2 10
-4z m17 -38 c-3 -8 -6 -5 -6 6 -1 11 2 17 5 13 3 -3 4 -12 1 -19z m-511 -65
c-10 -10 -19 5 -10 18 6 11 8 11 12 0 2 -7 1 -15 -2 -18z m524 6 c0 -6 -4 -7
-10 -4 -5 3 -10 11 -10 16 0 6 5 7 10 4 6 -3 10 -11 10 -16z m-640 -4 c0 -8
-4 -15 -10 -15 -5 0 -10 7 -10 15 0 8 5 15 10 15 6 0 10 -7 10 -15z m570 11
c0 -2 -11 -6 -25 -8 -14 -3 -25 -1 -25 3 0 5 11 9 25 9 14 0 25 -2 25 -4z m87
-32 c-3 -3 -12 -4 -19 -1 -8 3 -5 6 6 6 11 1 17 -2 13 -5z m-141 -20 c-3 -9
-6 -17 -6 -20 0 -2 -7 -1 -15 2 -12 5 -13 10 -4 20 16 19 33 18 25 -2z m54 -4
c0 -5 -4 -10 -10 -10 -5 0 -10 5 -10 10 0 6 5 10 10 10 6 0 10 -4 10 -10z
m-510 -30 c0 -5 -2 -10 -4 -10 -3 0 -8 5 -11 10 -3 6 -1 10 4 10 6 0 11 -4 11
-10z m-200 -15 c7 -9 8 -15 2 -15 -5 0 -12 7 -16 15 -3 8 -4 15 -2 15 2 0 9
-7 16 -15z m896 -12 c-3 -4 2 -12 13 -18 15 -7 18 -14 11 -25 -8 -13 -10 -12
-10 3 0 23 -15 22 -39 -5 -17 -17 -23 -19 -36 -8 -19 16 -20 31 -1 24 8 -3 23
3 33 14 10 11 22 21 27 21 5 1 6 -2 2 -6z m-706 -24 c0 -6 -4 -7 -10 -4 -5 3
-10 11 -10 16 0 6 5 7 10 4 6 -3 10 -11 10 -16z m-110 -19 c0 -5 -5 -10 -11
-10 -5 0 -7 5 -4 10 3 6 8 10 11 10 2 0 4 -4 4 -10z m165 -10 c3 -5 1 -10 -4
-10 -6 0 -11 5 -11 10 0 6 2 10 4 10 3 0 8 -4 11 -10z m469 -5 c3 -8 1 -15 -4
-15 -6 0 -10 7 -10 15 0 8 2 15 4 15 2 0 6 -7 10 -15z m-739 -5 c3 -5 1 -10
-4 -10 -6 0 -11 5 -11 10 0 6 2 10 4 10 3 0 8 -4 11 -10z m255 -20 c0 -5 -4
-10 -10 -10 -5 0 -10 5 -10 10 0 6 5 10 10 10 6 0 10 -4 10 -10z m-40 -10 c0
-5 -4 -10 -10 -10 -5 0 -10 5 -10 10 0 6 5 10 10 10 6 0 10 -4 10 -10z m602
-5 c0 -5 -5 -10 -11 -11 -8 -2 -7 -1 0 3 8 4 7 8 -2 15 -11 8 -11 9 -1 6 8 -2
14 -8 14 -13z m180 -22 c22 -20 23 -33 3 -33 -9 0 -12 6 -9 15 4 10 2 13 -8
10 -9 -4 -15 0 -15 10 0 19 6 19 29 -2z m-187 -32 c3 -5 1 -12 -5 -16 -5 -3
-10 1 -10 9 0 18 6 21 15 7z m125 -12 c0 -5 -4 -9 -10 -9 -5 0 -10 7 -10 16 0
8 5 12 10 9 6 -3 10 -10 10 -16z m35 1 c-3 -5 -10 -10 -16 -10 -5 0 -9 5 -9
10 0 6 7 10 16 10 8 0 12 -4 9 -10z m-641 -16 c4 -10 1 -14 -6 -12 -15 5 -23
28 -10 28 5 0 13 -7 16 -16z m663 -11 c-9 -9 -20 -14 -24 -10 -3 4 2 14 13 21
25 19 33 10 11 -11z m-121 -20 c-10 -10 -19 5 -10 18 6 11 8 11 12 0 2 -7 1
-15 -2 -18z m-869 -25 c-3 -8 -6 -5 -6 6 -1 11 2 17 5 13 3 -3 4 -12 1 -19z
m833 -5 c0 -8 -5 -13 -12 -11 -18 6 -21 25 -3 25 8 0 15 -7 15 -14z m35 -23
c3 -5 3 -15 -1 -21 -6 -11 -23 6 -24 24 0 10 18 9 25 -3z m232 -12 c-3 -8 -6
-5 -6 6 -1 11 2 17 5 13 3 -3 4 -12 1 -19z m-97 -18 c0 -5 -2 -10 -4 -10 -3 0
-8 5 -11 10 -3 6 -1 10 4 10 6 0 11 -4 11 -10z m-55 -20 c-3 -5 -10 -10 -16
-10 -5 0 -9 5 -9 10 0 6 7 10 16 10 8 0 12 -4 9 -10z m125 -9 c0 -6 -4 -13
-10 -16 -5 -3 -10 1 -10 9 0 9 5 16 10 16 6 0 10 -4 10 -9z m-1040 -11 c0 -5
-5 -10 -11 -10 -5 0 -7 5 -4 10 3 6 8 10 11 10 2 0 4 -4 4 -10z m115 0 c3 -5
1 -10 -4 -10 -6 0 -11 5 -11 10 0 6 2 10 4 10 3 0 8 -4 11 -10z m735 -21 c0
-18 -2 -20 -15 -9 -13 11 -13 15 -3 21 18 12 18 12 18 -12z m-742 -16 c5 -18
-23 -16 -39 3 -11 14 -10 15 11 12 13 -1 25 -9 28 -15z m-120 -19 c14 -15 14
-16 -3 -13 -10 2 -20 10 -23 17 -5 17 6 15 26 -4z m912 -4 c0 -5 -4 -10 -10
-10 -5 0 -10 5 -10 10 0 6 5 10 10 10 6 0 10 -4 10 -10z m195 -58 c-4 -4 -10
-1 -12 6 -3 6 -9 10 -14 6 -5 -3 -9 -1 -9 5 0 5 6 11 13 14 14 5 32 -21 22
-31z m-255 8 c0 -5 -4 -10 -10 -10 -5 0 -10 5 -10 10 0 6 5 10 10 10 6 0 10
-4 10 -10z m-730 -60 c0 -5 -2 -10 -4 -10 -3 0 -8 5 -11 10 -3 6 -1 10 4 10 6
0 11 -4 11 -10z m834 -37 c-5 -5 -12 -12 -16 -18 -4 -6 -8 -2 -8 8 0 9 7 17
17 17 9 0 12 -3 7 -7z m86 -22 c0 -6 -4 -13 -10 -16 -5 -3 -10 1 -10 9 0 9 5
16 10 16 6 0 10 -4 10 -9z m-930 -37 c0 -3 -7 -1 -15 6 -8 7 -15 17 -15 22 0
5 7 3 15 -6 8 -8 15 -18 15 -22z m810 -39 c0 -9 -6 -12 -15 -9 -8 4 -12 10 -9
15 8 14 24 10 24 -6z m35 -4 c-3 -6 -11 -11 -17 -11 -6 0 -6 6 2 15 14 17 26
13 15 -4z m-45 -69 c0 -15 -2 -15 -10 -2 -13 20 -13 33 0 25 6 -3 10 -14 10
-23z m-844 -26 c11 -23 10 -24 -7 -13 -11 7 -19 17 -19 24 0 21 14 15 26 -11z
m889 -56 c3 -5 1 -10 -4 -10 -6 0 -11 5 -11 10 0 6 2 10 4 10 3 0 8 -4 11 -10z
m-195 -30 c0 -5 -4 -10 -10 -10 -5 0 -10 5 -10 10 0 6 5 10 10 10 6 0 10 -4
10 -10z m-406 -25 c11 -8 15 -15 10 -15 -6 0 -19 7 -30 15 -10 8 -14 14 -9 14
6 0 19 -6 29 -14z m413 -27 c-3 -8 -6 -5 -6 6 -1 11 2 17 5 13 3 -3 4 -12 1
-19z m30 -20 c-3 -8 -6 -5 -6 6 -1 11 2 17 5 13 3 -3 4 -12 1 -19z m-367 8 c0
-11 -19 -15 -25 -6 -3 5 1 10 9 10 9 0 16 -2 16 -4z m-3 -88 c-3 -8 -6 -5 -6
6 -1 11 2 17 5 13 3 -3 4 -12 1 -19z m58 -38 c3 -5 1 -10 -4 -10 -6 0 -11 5
-11 10 0 6 2 10 4 10 3 0 8 -4 11 -10z m-7 -68 c2 -7 -1 -12 -8 -12 -6 0 -9 4
-6 9 4 5 1 12 -4 14 -6 3 -5 4 2 3 6 -1 14 -8 16 -14z"/>
<path d="M5778 4246 c-15 -8 -29 -12 -31 -9 -10 9 -62 -25 -104 -68 -40 -40
-44 -42 -61 -26 -10 9 -22 14 -25 10 -4 -3 -7 1 -7 11 0 16 -36 36 -66 36 -12
0 -12 -3 1 -23 8 -13 16 -48 16 -78 1 -30 7 -57 13 -61 8 -6 7 -8 -1 -8 -10 0
-13 -49 -13 -210 0 -161 3 -210 13 -210 8 0 8 -3 -2 -9 -11 -7 -13 -25 -8 -80
7 -84 31 -143 54 -134 11 5 14 3 8 -6 -12 -20 60 -86 129 -117 52 -24 74 -28
146 -27 124 0 300 52 300 88 0 9 5 13 11 10 14 -10 56 32 82 80 16 31 21 58
22 118 0 87 -12 107 -68 107 -40 0 -62 -14 -77 -50 -10 -25 -10 -34 4 -55 9
-14 23 -25 31 -25 24 0 17 -16 -20 -48 -60 -53 -156 -67 -231 -33 -67 30 -92
88 -63 143 8 16 8 23 -2 30 -11 8 -11 9 1 5 8 -2 23 6 32 18 10 12 72 59 138
105 132 91 181 139 198 199 18 59 12 159 -8 146 -5 -3 -6 3 -4 12 7 28 -32 84
-53 77 -14 -4 -15 -3 -5 4 11 7 7 14 -16 31 -17 11 -39 21 -50 21 -11 0 -22 5
-24 11 -9 28 -213 39 -260 15z m266 -109 c-10 -26 -22 -20 -16 9 3 15 8 22 14
16 5 -5 6 -16 2 -25z m-44 10 c0 -2 -9 -14 -20 -27 -11 -13 -20 -19 -20 -15 0
5 7 17 17 27 15 17 23 22 23 15z m-263 -29 c-3 -8 -6 -5 -6 6 -1 11 2 17 5 13
3 -3 4 -12 1 -19z m212 -43 c34 -17 56 -65 46 -102 -15 -63 -102 -166 -223
-266 -18 -15 -31 -31 -27 -36 3 -5 1 -12 -5 -16 -5 -3 -10 -1 -10 5 0 6 -4 8
-10 5 -11 -7 -12 8 -11 192 0 78 5 121 15 140 15 30 49 63 81 81 29 16 111 15
144 -3z m-199 -15 c0 -5 -5 -10 -11 -10 -5 0 -7 5 -4 10 3 6 8 10 11 10 2 0 4
-4 4 -10z m380 0 c0 -5 -5 -10 -11 -10 -5 0 -7 5 -4 10 3 6 8 10 11 10 2 0 4
-4 4 -10z m-20 -170 c0 -5 -4 -10 -10 -10 -5 0 -10 5 -10 10 0 6 5 10 10 10 6
0 10 -4 10 -10z m-235 -160 c3 -6 -1 -7 -9 -4 -18 7 -21 14 -7 14 6 0 13 -4
16 -10z m-305 -120 c0 -5 -4 -10 -10 -10 -5 0 -10 5 -10 10 0 6 5 10 10 10 6
0 10 -4 10 -10z m635 -210 c3 -5 1 -10 -4 -10 -6 0 -11 5 -11 10 0 6 2 10 4
10 3 0 8 -4 11 -10z m-375 -14 c0 -2 -7 -7 -16 -10 -8 -3 -12 -2 -9 4 6 10 25
14 25 6z m-67 -40 c-3 -4 -9 -2 -14 5 -13 22 -11 31 5 17 8 -7 12 -17 9 -22z"/>
<path d="M4673 4170 c0 -30 2 -43 4 -27 2 15 2 39 0 55 -2 15 -4 2 -4 -28z"/>
<path d="M5180 4133 c-41 -8 -83 -15 -92 -16 -10 -1 -18 -2 -18 -3 0 0 7 -15
15 -32 14 -26 15 -87 14 -419 -3 -443 -3 -471 -14 -496 -13 -32 10 -42 43 -19
28 21 102 104 102 117 0 3 8 15 19 26 44 48 50 103 51 460 0 184 4 350 9 367
9 31 9 32 -22 31 -18 -1 -66 -8 -107 -16z m-10 -23 c0 -5 -4 -10 -10 -10 -5 0
-10 5 -10 10 0 6 5 10 10 10 6 0 10 -4 10 -10z m50 -180 c0 -5 -4 -10 -10 -10
-5 0 -10 5 -10 10 0 6 5 10 10 10 6 0 10 -4 10 -10z m-45 -120 c3 -5 1 -10 -4
-10 -6 0 -11 5 -11 10 0 6 2 10 4 10 3 0 8 -4 11 -10z m27 -65 c0 -5 -5 -11
-11 -13 -6 -2 -11 4 -11 13 0 9 5 15 11 13 6 -2 11 -8 11 -13z m-32 -185 c0
-5 -8 -10 -17 -10 -15 0 -16 2 -3 10 19 12 20 12 20 0z m53 -75 c-3 -9 -8 -14
-10 -11 -3 3 -2 9 2 15 9 16 15 13 8 -4z m-48 -65 c3 -5 -1 -10 -10 -10 -9 0
-13 5 -10 10 3 6 8 10 10 10 2 0 7 -4 10 -10z m49 -56 c10 -25 -1 -29 -14 -5
-6 12 -7 21 -1 21 5 0 12 -7 15 -16z m-64 -168 c0 -3 -4 -8 -10 -11 -5 -3 -10
-1 -10 4 0 6 5 11 10 11 6 0 10 -2 10 -4z m-30 -26 c0 -5 -4 -10 -10 -10 -5 0
-10 5 -10 10 0 6 5 10 10 10 6 0 10 -4 10 -10z"/>
<path d="M3900 4130 c0 -7 -8 -9 -19 -5 -26 8 -64 -25 -55 -48 5 -15 9 -15 22
-5 13 11 15 10 10 -4 -8 -21 10 -25 137 -33 116 -7 166 -25 239 -88 l50 -41
-20 34 c-29 51 -114 132 -171 163 -58 31 -193 50 -193 27z m275 -110 c-3 -5
-12 -10 -18 -10 -7 0 -6 4 3 10 19 12 23 12 15 0z"/>
<path d="M4674 3950 c0 -85 2 -120 3 -77 2 42 2 112 0 155 -1 42 -3 7 -3 -78z"/>
<path d="M3790 3949 c-25 -5 -51 -10 -57 -11 -7 -1 -13 -7 -13 -15 0 -7 -4
-13 -10 -13 -5 0 -10 5 -10 10 0 18 -98 -41 -134 -80 -42 -47 -60 -106 -51
-170 10 -74 38 -94 133 -97 42 -2 71 0 64 3 -17 8 -42 58 -42 86 1 27 15 53
52 97 23 27 35 32 90 37 35 4 69 12 77 18 11 8 13 8 8 0 -4 -7 4 -14 20 -19
73 -18 69 -121 -7 -175 -17 -12 -27 -26 -23 -32 4 -8 0 -9 -12 -5 -9 4 -23 3
-29 -2 -7 -6 -63 -33 -126 -61 -130 -57 -169 -89 -212 -175 -24 -46 -32 -77
-35 -132 -2 -45 0 -73 6 -73 6 0 8 -7 5 -15 -4 -8 -1 -15 5 -15 6 0 8 -6 5
-14 -3 -8 3 -23 13 -34 10 -10 19 -25 21 -33 6 -26 78 -90 118 -104 54 -19
156 -12 229 15 l60 23 -39 13 c-21 8 -42 11 -47 8 -5 -3 -9 -1 -9 4 0 6 -15
19 -34 30 -54 32 -89 87 -96 148 -3 30 -2 54 2 54 4 0 8 8 8 18 0 13 -2 14 -9
3 -5 -8 -11 -9 -15 -3 -3 6 3 13 14 17 11 4 28 21 36 38 20 38 90 124 122 150
12 10 22 30 23 45 0 21 2 23 7 9 7 -16 11 -14 37 13 16 16 24 30 17 30 -7 0
-9 7 -5 17 5 14 8 14 11 2 3 -7 9 -16 13 -20 5 -3 9 -86 10 -184 1 -167 2
-182 24 -226 29 -56 72 -94 143 -126 75 -33 83 -32 66 15 -7 20 -13 50 -14 66
0 25 -3 27 -25 22 -19 -5 -23 -3 -18 9 3 9 12 14 21 10 13 -5 14 8 8 97 -3 57
-6 211 -5 343 1 311 1 299 9 285 5 -8 10 -9 14 -2 8 14 -1 19 -87 49 -187 64
-229 71 -327 52z m-10 -49 c0 -5 -4 -10 -10 -10 -5 0 -10 5 -10 10 0 6 5 10
10 10 6 0 10 -4 10 -10z m110 0 c0 -5 -4 -10 -10 -10 -5 0 -10 5 -10 10 0 6 5
10 10 10 6 0 10 -4 10 -10z m-40 -3 c0 -2 -10 -12 -21 -23 -22 -19 -22 -19
-10 4 10 18 31 31 31 19z m-137 -14 c-7 -2 -19 -2 -25 0 -7 3 -2 5 12 5 14 0
19 -2 13 -5z m297 -58 c0 -8 -2 -15 -4 -15 -2 0 -6 7 -10 15 -3 8 -1 15 4 15
6 0 10 -7 10 -15z m-250 -5 c0 -5 -8 -10 -17 -10 -15 0 -16 2 -3 10 19 12 20
12 20 0z m-55 -40 c-3 -5 -14 -10 -23 -10 -15 0 -15 2 -2 10 20 13 33 13 25 0z
m-105 -134 c0 -3 -4 -8 -10 -11 -5 -3 -10 -1 -10 4 0 6 5 11 10 11 6 0 10 -2
10 -4z m70 -56 c0 -5 -4 -10 -9 -10 -6 0 -13 5 -16 10 -3 6 1 10 9 10 9 0 16
-4 16 -10z m470 0 c0 -13 -11 -13 -30 0 -12 8 -11 10 8 10 12 0 22 -4 22 -10z
m-42 -39 c15 -9 13 -42 -3 -48 -6 -2 -19 10 -28 27 -17 29 -17 30 0 30 10 0
24 -4 31 -9z m-268 -5 c0 -3 -4 -8 -10 -11 -5 -3 -10 -1 -10 4 0 6 5 11 10 11
6 0 10 -2 10 -4z m178 -81 c-3 -3 -9 2 -12 12 -6 14 -5 15 5 6 7 -7 10 -15 7
-18z m-278 -5 c0 -5 -4 -10 -10 -10 -5 0 -10 5 -10 10 0 6 5 10 10 10 6 0 10
-4 10 -10z m397 -36 c-9 -9 -28 6 -21 18 4 6 10 6 17 -1 6 -6 8 -13 4 -17z
m-542 -104 c3 -5 1 -10 -4 -10 -6 0 -11 5 -11 10 0 6 2 10 4 10 3 0 8 -4 11
-10z m135 -33 c0 -5 -9 -6 -20 -2 -15 5 -18 3 -14 -8 3 -8 1 -17 -4 -21 -5 -3
-9 10 -9 28 0 30 2 32 24 22 12 -6 23 -15 23 -19z m-80 -17 c0 -5 -4 -10 -10
-10 -5 0 -10 5 -10 10 0 6 5 10 10 10 6 0 10 -4 10 -10z m510 6 c0 -3 -4 -8
-10 -11 -5 -3 -10 -1 -10 4 0 6 5 11 10 11 6 0 10 -2 10 -4z m-613 -61 c0 -8
-4 -15 -9 -15 -10 0 -11 14 -1 23 9 10 10 9 10 -8z m63 6 c0 -5 -7 -11 -15
-15 -15 -5 -20 5 -8 17 9 10 23 9 23 -2z m510 -32 c0 -6 -6 -7 -16 -1 -9 5
-24 8 -33 7 -9 -1 -10 0 -3 2 6 3 12 9 12 14 0 6 8 5 20 -1 11 -6 20 -15 20
-21z m-584 -26 c-10 -10 -19 5 -10 18 6 11 8 11 12 0 2 -7 1 -15 -2 -18z m43
-32 c-25 -21 -39 -26 -39 -13 0 8 53 40 59 36 2 -2 -7 -12 -20 -23z m18 -78
c-4 -17 -4 -17 -12 0 -4 9 -4 25 0 35 8 16 8 16 12 0 3 -10 3 -26 0 -35z m-40
15 c2 -17 0 -19 -7 -8 -5 8 -6 18 -4 22 8 12 10 10 11 -14z m221 -41 c3 -12
-3 -17 -20 -17 -17 0 -19 3 -9 9 8 5 10 14 6 21 -5 8 -3 11 6 8 8 -3 15 -12
17 -21z m-155 -1 c4 -10 1 -13 -8 -9 -8 3 -12 9 -9 14 7 12 11 11 17 -5z m217
-47 c0 -6 -4 -7 -10 -4 -5 3 -10 11 -10 16 0 6 5 7 10 4 6 -3 10 -11 10 -16z"/>
<path d="M2360 3903 c-110 -18 -129 -85 -27 -97 140 -17 159 -17 173 1 9 12
13 14 14 5 0 -9 7 -11 22 -7 16 6 20 4 15 -8 -4 -11 3 -19 21 -26 15 -5 41
-19 58 -31 26 -16 33 -18 37 -6 6 14 -51 73 -111 115 -33 23 -142 62 -165 60
-7 -1 -23 -4 -37 -6z m100 -33 c0 -5 -4 -10 -10 -10 -5 0 -10 5 -10 10 0 6 5
10 10 10 6 0 10 -4 10 -10z m-70 -30 c0 -5 -2 -10 -4 -10 -3 0 -8 5 -11 10 -3
6 -1 10 4 10 6 0 11 -4 11 -10z"/>
<path d="M3225 3851 c-2 -4 -18 -6 -34 -3 -50 7 -114 -37 -145 -100 l-27 -53
2 63 c1 34 7 62 12 62 6 0 8 2 5 5 -2 3 -58 -4 -124 -15 -65 -11 -123 -20
-127 -20 -5 0 -1 -10 7 -22 11 -16 16 -46 16 -99 0 -53 4 -79 13 -82 10 -4 10
-6 0 -6 -16 -1 -18 -101 -3 -101 7 0 7 -6 0 -20 -6 -12 -10 -105 -10 -247 1
-226 -10 -348 -36 -410 -14 -35 -13 -38 14 -24 9 4 33 16 54 26 55 26 118 92
147 154 26 55 26 60 29 306 1 142 7 261 13 276 32 81 120 107 170 51 15 -17
30 -27 34 -24 3 4 1 -6 -5 -22 -6 -16 -9 -35 -6 -43 3 -7 2 -12 -2 -11 -4 1
-19 -4 -34 -12 -21 -10 -31 -10 -42 -1 -12 10 -16 8 -21 -9 -10 -32 19 -68 60
-76 29 -5 34 -10 30 -25 -10 -31 29 -89 61 -89 2 0 1 13 -2 30 -4 16 -1 44 5
61 8 22 8 36 1 43 -15 15 -12 30 4 17 12 -10 18 -8 29 11 54 85 67 109 67 122
0 8 5 16 11 18 14 5 23 87 15 133 -7 37 -54 98 -90 117 -29 16 -85 27 -91 19z
m2 -163 c-3 -8 -6 -5 -6 6 -1 11 2 17 5 13 3 -3 4 -12 1 -19z m-177 -13 c-15
-18 -36 -20 -46 -4 -4 7 0 9 14 5 11 -4 23 -2 27 4 3 5 9 10 12 10 3 0 0 -7
-7 -15z m-136 -1 c18 -7 22 -34 5 -34 -5 0 -8 4 -4 9 3 6 -3 14 -12 20 -20 12
-13 14 11 5z m481 -14 c-3 -5 -10 -10 -16 -10 -5 0 -9 5 -9 10 0 6 7 10 16 10
8 0 12 -4 9 -10z m-25 -40 c0 -5 -4 -10 -10 -10 -5 0 -10 5 -10 10 0 6 5 10
10 10 6 0 10 -4 10 -10z m-485 -60 c3 -5 1 -10 -4 -10 -6 0 -11 5 -11 10 0 6
2 10 4 10 3 0 8 -4 11 -10z m135 -14 c0 -8 -10 -13 -25 -13 -26 0 -34 12 -12
20 23 10 37 7 37 -7z m-145 -166 c3 -5 1 -10 -4 -10 -6 0 -11 5 -11 10 0 6 2
10 4 10 3 0 8 -4 11 -10z m-7 -80 c7 -11 9 -20 4 -20 -8 0 -42 36 -42 45 0 10
26 -7 38 -25z m82 20 c0 -5 -2 -10 -4 -10 -3 0 -8 5 -11 10 -3 6 -1 10 4 10 6
0 11 -4 11 -10z m-35 -70 c-3 -5 -12 -10 -18 -10 -7 0 -6 4 3 10 19 12 23 12
15 0z m-1 -334 c-11 -27 -21 -17 -16 15 4 24 7 28 13 16 5 -8 6 -22 3 -31z"/>
<path d="M4674 3640 c0 -85 2 -120 3 -77 2 42 2 112 0 155 -1 42 -3 7 -3 -78z"/>
<path d="M2230 3723 c-57 -9 -68 -14 -75 -35 -6 -19 -8 -20 -12 -5 -2 9 -9 17
-14 17 -6 0 -7 -5 -3 -11 4 -7 0 -9 -12 -5 -29 9 -120 -48 -151 -96 -37 -55
-45 -170 -14 -206 23 -26 90 -52 137 -52 41 0 49 12 24 35 -11 10 -20 24 -20
31 0 7 -6 15 -12 17 -10 4 -10 6 0 6 6 1 12 13 12 27 0 30 91 130 109 120 5
-3 17 1 26 11 13 13 19 13 25 3 5 -8 21 -11 43 -8 29 3 40 -2 67 -30 28 -29
31 -38 25 -69 -9 -52 -58 -89 -228 -173 -140 -69 -184 -100 -142 -100 9 0 13
-5 9 -11 -4 -8 -9 -8 -17 0 -16 16 -31 13 -44 -9 -11 -16 -10 -18 2 -14 11 5
13 2 9 -9 -3 -9 -12 -13 -20 -10 -23 9 -65 -96 -67 -165 -2 -74 18 -142 41
-142 14 0 14 -2 3 -9 -11 -7 -9 -14 13 -35 14 -15 26 -31 26 -35 0 -15 39 -43
49 -36 6 3 16 3 22 -1 8 -5 8 -9 -1 -14 -8 -5 1 -12 25 -20 50 -17 157 -6 232
22 l58 22 -41 12 c-66 19 -107 43 -149 88 -35 38 -40 49 -40 92 0 31 -5 53
-15 61 -13 11 -12 12 8 13 12 0 22 6 22 13 0 7 14 35 32 63 17 27 31 60 30 74
-1 19 1 21 7 11 14 -22 43 5 36 33 -3 12 -2 15 1 8 4 -8 29 9 72 48 l67 60 3
-117 c1 -65 7 -123 14 -130 8 -10 7 -13 -2 -13 -16 0 -6 -96 14 -142 26 -59
113 -135 141 -124 8 3 15 1 15 -4 0 -6 7 -10 15 -10 8 0 15 -4 15 -9 0 -5 11
-11 24 -13 23 -5 23 -4 11 26 -18 41 -35 171 -35 257 0 48 -4 69 -12 69 -10 0
-10 2 -1 8 8 5 11 78 12 247 1 195 4 242 16 255 20 22 19 30 -2 30 -10 0 -42
9 -70 20 -29 11 -53 17 -53 12 0 -4 -4 -2 -8 4 -4 6 -29 18 -57 27 -82 25
-105 29 -105 15 0 -9 -3 -9 -12 0 -12 12 -29 13 -78 5z m20 -63 c0 -5 -4 -10
-10 -10 -5 0 -10 5 -10 10 0 6 5 10 10 10 6 0 10 -4 10 -10z m-60 -29 c0 -6
-4 -13 -10 -16 -5 -3 -10 1 -10 9 0 9 5 16 10 16 6 0 10 -4 10 -9z m83 -16
c-5 -13 -23 -22 -23 -11 0 15 14 35 21 31 4 -3 6 -12 2 -20z m64 -7 c-3 -8 -6
-5 -6 6 -1 11 2 17 5 13 3 -3 4 -12 1 -19z m47 -14 c3 -8 2 -12 -4 -9 -6 3
-10 10 -10 16 0 14 7 11 14 -7z m-367 -20 c-3 -3 -12 -4 -19 -1 -8 3 -5 6 6 6
11 1 17 -2 13 -5z m63 -24 c0 -5 -2 -10 -4 -10 -3 0 -8 5 -11 10 -3 6 -1 10 4
10 6 0 11 -4 11 -10z m370 -64 c0 -3 -4 -8 -10 -11 -5 -3 -10 -1 -10 4 0 6 5
11 10 11 6 0 10 -2 10 -4z m-70 -126 c0 -5 -5 -10 -11 -10 -5 0 -7 5 -4 10 3
6 8 10 11 10 2 0 4 -4 4 -10z m-220 -90 c0 -5 -9 -10 -20 -10 -11 0 -20 5 -20
10 0 6 9 10 20 10 11 0 20 -4 20 -10z m-20 -74 c0 -3 -4 -8 -10 -11 -5 -3 -10
-1 -10 4 0 6 5 11 10 11 6 0 10 -2 10 -4z m321 -49 c-11 -11 -41 2 -41 18 0
10 5 11 24 2 14 -7 21 -16 17 -20z m39 -23 c0 -8 -5 -12 -10 -9 -6 4 -8 11 -5
16 9 14 15 11 15 -7z m-480 -8 c0 -3 -4 -8 -10 -11 -5 -3 -10 -1 -10 4 0 6 5
11 10 11 6 0 10 -2 10 -4z m434 -42 c5 -12 2 -15 -10 -10 -8 3 -18 6 -20 6 -3
0 -2 5 1 10 9 15 22 12 29 -6z m16 -73 c0 -5 -7 -11 -15 -15 -15 -5 -20 5 -8
17 9 10 23 9 23 -2z m-499 -84 c15 4 18 2 13 -11 -5 -14 -34 -24 -34 -12 0 2
-2 10 -3 18 -2 7 -2 10 0 7 2 -4 13 -5 24 -2z m609 -62 c0 -8 -4 -15 -10 -15
-5 0 -7 7 -4 15 4 8 8 15 10 15 2 0 4 -7 4 -15z m-370 -83 c0 -5 -11 -18 -25
-30 -14 -12 -25 -17 -25 -12 0 6 7 13 15 16 8 4 15 12 15 20 0 8 5 14 10 14 6
0 10 -4 10 -8z"/>
<path d="M2680 3719 c0 -9 9 -24 20 -34 26 -23 26 -8 0 25 -14 18 -20 21 -20
9z"/>
<path d="M330 3479 c0 -5 5 -7 10 -4 6 3 10 8 10 11 0 2 -4 4 -10 4 -5 0 -10
-5 -10 -11z"/>
<path d="M4682 3450 c0 -14 2 -19 5 -12 2 6 2 18 0 25 -3 6 -5 1 -5 -13z"/>
<path d="M302 3426 c-24 -54 -46 -156 -34 -156 5 0 12 21 16 46 3 25 15 66 25
90 11 24 16 44 12 44 -4 0 -13 -11 -19 -24z"/>
<path d="M5328 3374 c-25 -24 6 -254 33 -254 5 0 9 -6 8 -12 -3 -21 12 -48 27
-48 8 0 11 -6 8 -15 -4 -10 0 -15 15 -15 14 0 19 -5 15 -15 -4 -9 1 -18 12
-22 11 -3 22 -11 25 -16 4 -5 27 -12 53 -14 38 -5 47 -2 53 13 4 10 2 19 -5
22 -7 2 -9 8 -6 13 3 5 -37 51 -89 102 -99 96 -122 134 -135 220 -4 27 -10 45
-14 41z m118 -251 c-7 -7 -26 7 -26 19 0 6 6 6 15 -2 9 -7 13 -15 11 -17z
m-36 -7 c0 -3 -4 -8 -10 -11 -5 -3 -10 -1 -10 4 0 6 5 11 10 11 6 0 10 -2 10
-4z m50 -26 c0 -5 -5 -10 -11 -10 -5 0 -7 5 -4 10 3 6 8 10 11 10 2 0 4 -4 4
-10z"/>
<path d="M262 3200 c-2 -76 7 -140 19 -140 5 0 6 6 3 14 -3 8 -9 54 -13 103
-8 87 -8 87 -9 23z"/>
<path d="M698 3145 c-35 -19 -42 -44 -23 -87 28 -68 36 -126 24 -171 -12 -47
-72 -109 -96 -100 -8 3 -18 1 -22 -5 -4 -8 -20 -8 -50 -1 -60 13 -86 7 -46
-12 49 -22 182 -18 230 8 39 21 97 73 80 73 -4 0 0 9 11 21 39 44 6 251 -46
279 -24 13 -29 12 -62 -5z m74 -137 c-7 -7 -12 -8 -12 -2 0 14 12 26 19 19 2
-3 -1 -11 -7 -17z m-32 -148 c0 -5 -7 -7 -15 -4 -8 4 -15 8 -15 10 0 2 7 4 15
4 8 0 15 -4 15 -10z m-20 -14 c0 -11 -19 -15 -25 -6 -3 5 1 10 9 10 9 0 16 -2
16 -4z"/>
<path d="M5070 3122 c0 -5 -28 -29 -62 -51 -35 -23 -67 -44 -73 -48 -34 -26
-250 -93 -298 -93 -24 0 -48 -5 -55 -12 -9 -9 -12 -9 -12 1 0 7 -8 11 -17 10
-10 -1 -26 1 -36 6 -9 4 -26 5 -37 2 -11 -3 -21 1 -24 10 -3 8 -12 13 -18 11
-7 -3 -19 1 -26 9 -16 15 -32 17 -32 3 0 -5 -6 -7 -14 -4 -8 3 -18 -7 -26 -27
-15 -36 -7 -57 31 -76 33 -17 190 -16 264 2 74 17 175 61 175 75 0 6 4 8 10 5
28 -17 278 160 257 182 -4 3 -7 1 -7 -5z m-690 -226 c0 -11 -19 -15 -25 -6 -3
5 1 10 9 10 9 0 16 -2 16 -4z"/>
<path d="M284 3015 c14 -58 58 -138 102 -181 24 -24 48 -44 54 -44 19 0 9 15
-23 35 -39 25 -87 95 -106 155 -17 53 -37 80 -27 35z"/>
<path d="M3400 3007 c0 -4 9 -24 19 -45 20 -38 51 -71 86 -90 l20 -11 -20 -6
c-111 -37 -181 -77 -169 -97 5 -7 2 -8 -6 -3 -26 16 -90 -85 -90 -144 0 -24 5
-29 30 -33 36 -5 85 38 74 66 -5 13 -2 17 12 14 15 -2 18 2 17 20 -2 14 3 22
12 22 8 0 23 12 32 28 10 15 27 35 38 45 30 26 131 77 157 78 13 1 -1 5 -31
10 -65 11 -112 44 -152 107 -16 25 -29 43 -29 39z"/>
<path d="M164 2983 c3 -10 8 -30 12 -45 3 -16 10 -28 14 -28 5 0 2 20 -7 45
-14 42 -30 65 -19 28z"/>
<path d="M190 2895 c0 -3 9 -23 19 -43 31 -60 107 -138 152 -156 53 -22 61
-15 9 8 -46 20 -121 100 -147 156 -15 34 -33 52 -33 35z"/>
<path d="M4193 2688 c-57 -9 -63 -12 -63 -34 0 -13 4 -24 9 -24 15 0 18 -58 4
-97 -7 -21 -10 -47 -6 -58 6 -19 7 -44 4 -112 0 -17 -8 -39 -17 -47 -16 -17
-13 -19 21 -17 59 4 85 13 85 28 0 15 1 15 13 -1 25 -34 44 -10 46 60 2 58 0
64 -19 64 -15 0 -20 -7 -20 -24 0 -42 -18 -76 -40 -76 -13 0 -20 7 -20 20 0
11 5 20 10 20 6 0 10 15 10 34 0 25 5 35 20 39 18 5 23 21 20 75 -1 4 -10 6
-20 4 -16 -3 -20 3 -20 25 0 43 11 73 26 73 9 0 14 -11 14 -32 0 -28 4 -33 25
-34 20 -2 25 3 25 21 0 14 -7 25 -17 28 -17 4 -17 5 0 6 20 1 24 37 5 44 -10
4 -10 6 0 6 6 1 12 6 12 11 0 12 -21 11 -107 -2z m4 -110 c-3 -7 -5 -2 -5 12
0 14 2 19 5 13 2 -7 2 -19 0 -25z"/>
<path d="M4025 2661 c-11 -5 -23 -7 -27 -4 -11 6 -10 -45 1 -51 5 -3 6 -26 4
-51 -5 -38 -2 -48 18 -65 25 -20 20 -26 -10 -11 -16 9 -17 4 -15 -57 2 -64 1
-68 -21 -70 -29 -2 -39 31 -29 104 4 37 3 54 -5 54 -6 0 -11 7 -11 15 0 8 4
15 8 15 4 0 9 12 10 27 1 15 7 32 12 37 6 6 10 18 10 28 0 14 -8 18 -34 18
-19 0 -38 -5 -41 -10 -4 -6 -11 -7 -17 -4 -7 5 -8 -4 -4 -27 10 -49 6 -133 -6
-140 -7 -4 -3 -12 11 -20 11 -8 21 -17 21 -22 0 -4 -4 -5 -10 -2 -5 3 -10 1
-10 -4 0 -6 8 -11 18 -11 15 -1 15 -2 -2 -15 -17 -13 -18 -19 -7 -54 6 -22 18
-47 27 -56 16 -16 61 -20 80 -7 22 15 46 79 49 130 2 29 9 59 15 67 8 10 8 19
1 33 -14 26 -10 103 6 109 7 3 13 16 13 29 0 25 -17 30 -55 15z m-92 -86 c-3
-9 -8 -14 -10 -11 -3 3 -2 9 2 15 9 16 15 13 8 -4z"/>
<path d="M3725 2622 c-63 -6 -75 -11 -75 -37 0 -14 5 -25 10 -25 6 0 10 -27
10 -60 0 -38 -4 -60 -11 -60 -8 0 -8 -4 -1 -13 22 -26 14 -185 -9 -171 -5 3
-9 -2 -9 -12 0 -13 6 -15 28 -10 15 4 34 7 42 7 46 1 71 12 65 27 -5 12 -1 12
16 -4 13 -11 19 -13 14 -4 -5 8 -10 20 -11 25 -1 6 -6 19 -10 30 -7 18 -6 18
9 6 15 -12 17 -10 17 29 0 34 -3 41 -16 36 -9 -3 -18 -6 -20 -6 -2 0 -4 -13
-4 -29 0 -39 -9 -61 -25 -61 -10 0 -14 21 -17 75 -2 56 0 75 10 75 10 0 10 5
1 21 -6 12 -9 32 -6 45 2 13 0 24 -5 24 -5 0 0 14 12 30 29 41 24 66 -15 62z"/>
<path d="M3442 2582 c-28 -3 -31 -6 -21 -18 15 -18 12 -133 -3 -151 -7 -9 -7
-18 2 -28 15 -19 7 -138 -10 -143 -8 -3 -7 -9 2 -20 10 -12 10 -14 1 -8 -7 4
-13 2 -13 -3 0 -13 9 -13 84 -1 84 14 106 37 106 112 0 44 -5 63 -19 77 -17
17 -18 21 -5 32 9 7 13 21 11 31 -3 10 -1 18 4 18 15 0 10 77 -6 93 -14 15
-52 17 -133 9z m85 -58 c8 -20 -9 -76 -25 -82 -8 -2 -12 11 -12 47 0 39 4 51
15 51 9 0 18 -7 22 -16z m-52 -14 c3 -5 1 -10 -4 -10 -6 0 -11 5 -11 10 0 6 2
10 4 10 3 0 8 -4 11 -10z m65 -130 c0 -5 -2 -10 -4 -10 -3 0 -8 5 -11 10 -3 6
-1 10 4 10 6 0 11 -4 11 -10z m-21 -42 c10 -27 3 -64 -15 -79 -12 -10 -14 -2
-14 45 0 57 14 74 29 34z"/>
<path d="M3089 2536 c-6 -6 -56 -14 -91 -15 -26 -1 -28 -4 -28 -46 0 -28 4
-45 12 -45 9 0 9 -3 0 -12 -17 -17 -15 -33 2 -19 11 9 15 9 19 -1 3 -7 6 1 6
19 1 39 10 63 23 63 11 0 6 -95 -5 -120 -5 -10 0 -24 13 -38 17 -18 18 -22 5
-22 -18 0 -21 -60 -3 -78 9 -9 6 -16 -10 -30 -27 -24 -28 -42 -2 -42 14 0 20
7 20 23 1 20 2 21 14 5 18 -24 56 -24 56 0 0 10 -5 23 -12 30 -14 14 -11 131
3 148 7 8 6 14 -1 19 -13 8 -13 115 0 115 5 0 13 -18 16 -40 5 -30 11 -40 23
-38 12 2 17 18 19 66 l3 62 -39 0 c-21 0 -41 -2 -43 -4z m21 -20 c0 -2 -7 -6
-15 -10 -8 -3 -15 -1 -15 4 0 6 7 10 15 10 8 0 15 -2 15 -4z"/>
<path d="M2792 2497 c-27 -15 -54 -52 -51 -69 1 -7 -1 -20 -5 -28 -9 -20 26
-114 44 -118 27 -5 61 -53 58 -81 -4 -32 -32 -35 -36 -3 -2 14 -10 22 -22 22
-41 0 -50 -11 -50 -60 l0 -48 48 3 c78 4 82 4 82 19 0 8 9 17 19 21 38 12 49
108 17 144 -9 10 -16 25 -16 34 0 10 -8 17 -19 17 -10 0 -24 6 -31 14 -6 8
-18 12 -26 9 -8 -3 -14 0 -14 7 0 6 5 8 11 4 9 -5 10 7 7 42 -3 27 -3 43 -1
37 3 -7 11 -13 18 -13 7 0 16 -11 19 -25 5 -19 13 -25 35 -25 33 0 41 14 41
71 l0 39 -52 0 c-29 -1 -63 -6 -76 -13z"/>
<path d="M2543 2463 c-26 -3 -33 -9 -33 -25 0 -12 7 -30 17 -40 9 -11 11 -18
5 -18 -7 0 -12 -12 -12 -27 0 -16 -6 -39 -13 -53 -8 -16 -10 -44 -7 -77 3 -28
3 -50 -1 -47 -4 2 -9 -10 -11 -27 -4 -25 0 -33 23 -45 40 -20 42 -18 34 22 -7
39 3 54 38 54 16 0 17 -6 12 -43 l-7 -42 46 3 c48 4 53 11 40 60 -5 17 -9 20
-20 11 -14 -11 -34 -5 -34 12 0 5 9 9 19 9 17 0 20 8 23 53 2 28 -3 63 -9 77
-7 14 -13 33 -13 43 0 9 -6 17 -12 17 -9 0 -9 3 -2 8 16 11 25 42 19 63 -6 19
-25 21 -102 12z m46 -185 c1 -10 -6 -18 -14 -18 -17 0 -18 15 -8 75 l7 40 7
-40 c5 -22 8 -48 8 -57z m45 -21 c-3 -9 -12 -13 -20 -10 -12 4 -11 8 3 18 21
16 26 14 17 -8z m16 -126 c0 -12 -20 -25 -27 -18 -7 7 6 27 18 27 5 0 9 -4 9
-9z"/>
<path d="M4486 2433 c4 -10 9 -39 12 -64 3 -38 -1 -51 -22 -77 -15 -17 -49
-41 -76 -53 -39 -18 -47 -25 -39 -36 14 -16 5 -17 -20 -1 -15 9 -37 9 -97 0
-43 -7 -82 -16 -87 -21 -5 -5 -15 -7 -23 -4 -19 7 -157 -16 -165 -28 -4 -7 -9
-7 -12 -2 -3 5 -66 0 -149 -13 -79 -13 -147 -23 -152 -24 -5 0 -7 -2 -5 -5 3
-2 68 2 144 10 196 20 352 30 475 30 101 0 107 -2 155 -32 28 -18 60 -43 73
-57 12 -15 26 -26 32 -26 18 0 11 67 -11 94 -26 34 -93 68 -115 59 -14 -5 -14
-3 2 16 15 17 20 19 22 7 3 -15 30 -16 65 -3 9 4 24 9 32 12 21 6 53 62 60
107 9 50 -9 95 -46 113 -40 21 -63 20 -53 -2z m-76 -273 c0 -5 -4 -10 -10 -10
-5 0 -10 5 -10 10 0 6 5 10 10 10 6 0 10 -4 10 -10z m40 -31 c0 -5 -4 -9 -10
-9 -5 0 -10 7 -10 16 0 8 5 12 10 9 6 -3 10 -10 10 -16z"/>
<path d="M2347 2434 c-5 -6 -31 -9 -89 -13 -20 -1 -26 -47 -6 -53 7 -3 11 -24
10 -54 -3 -83 -3 -87 2 -144 3 -30 5 -57 6 -60 0 -3 4 1 9 9 5 7 14 10 20 6 8
-4 0 -13 -21 -23 -18 -10 -35 -25 -36 -36 -4 -17 1 -18 65 -12 113 12 108 8
110 81 2 63 1 65 -23 65 -15 0 -24 -6 -24 -16 0 -8 5 -12 10 -9 6 3 10 -1 10
-9 0 -9 -4 -16 -10 -16 -5 0 -10 -11 -10 -25 0 -18 -5 -25 -20 -25 -18 0 -20
7 -20 55 0 48 2 55 20 55 17 0 20 7 20 40 0 33 -3 40 -20 40 -17 0 -20 7 -20
44 0 28 5 46 14 49 20 8 26 -2 26 -40 0 -30 3 -34 23 -31 20 3 22 9 25 66 l3
62 -34 0 c-18 0 -36 -3 -40 -6z m-37 -164 c-8 -6 -22 -10 -30 -10 -8 0 -4 6
10 13 27 15 44 12 20 -3z"/>
<path d="M2470 2090 c0 -5 7 -10 16 -10 8 0 12 5 9 10 -3 6 -10 10 -16 10 -5
0 -9 -4 -9 -10z"/>
<path d="M593 1920 c-3 -11 -12 -20 -20 -20 -13 0 -13 2 -2 17 13 15 11 16
-16 10 -16 -4 -45 -10 -62 -13 -19 -4 -33 -13 -33 -21 0 -10 -6 -12 -20 -8
-29 9 -152 -59 -200 -112 -47 -50 -49 -76 -9 -106 38 -27 62 -16 109 53 44 65
91 105 165 142 52 27 164 58 206 58 13 0 31 5 39 10 10 7 -11 10 -68 10 -76 0
-84 -2 -89 -20z"/>
</g>
</svg>
